<svg width="28" height="29" viewBox="0 0 28 29" fill="none" xmlns="http://www.w3.org/2000/svg">
<g clip-path="url(#clip0_91_232)">
<path d="M0 5.00684C0 2.24541 2.23858 0.00683594 5 0.00683594V0.00683594V29.0068V29.0068C2.23858 29.0068 0 26.7683 0 24.0068V5.00684Z" fill="#373737"/>
<path d="M25.5 24.0078C26.8807 24.0078 28 25.1271 28 26.5078V26.5078C28 27.8885 26.8807 29.0078 25.5 29.0078L5 29.0078C2.23858 29.0078 -1.20706e-07 26.7692 0 24.0078V24.0078L25.5 24.0078Z" fill="#373737"/>
<path d="M25.5 0.00781239C26.8807 0.00781245 28 1.1271 28 2.50781V2.50781C28 3.88853 26.8807 5.00781 25.5 5.00781L-2.18557e-07 5.00781V5.00781C-9.78513e-08 2.24639 2.23858 0.00781137 5 0.00781149L25.5 0.00781239Z" fill="#373737"/>
<path d="M24.1678 18.6326C25.1441 19.6089 25.1441 21.1918 24.1678 22.1682V22.1682C23.1915 23.1445 21.6086 23.1445 20.6322 22.1682L17.7681 19.304C16.7918 18.3277 16.7918 16.7448 17.7681 15.7685V15.7685C18.7444 14.7922 20.3273 14.7922 21.3036 15.7685L24.1678 18.6326Z" fill="#373737"/>
<path d="M0.666016 13.7949L0.666015 8.79492L17.1669 8.79492L17.1669 13.7949L0.666016 13.7949Z" fill="#373737"/>
<path d="M5.13086 26.48L1.59533 22.9444L23.772 0.767819C24.7483 -0.208492 26.3312 -0.208491 27.3075 0.767819V0.767819C28.2838 1.74413 28.2838 3.32704 27.3075 4.30335L5.13086 26.48Z" fill="#373737"/>
</g>
<defs>
<clipPath id="clip0_91_232">
<rect width="28" height="29" fill="white"/>
</clipPath>
</defs>
</svg>
