<svg width="702" height="702" viewBox="0 0 702 702" fill="none" xmlns="http://www.w3.org/2000/svg">
<rect width="702" height="702" fill="#262626"/>
<path d="M340.627 526L222.627 371V526H137.127V175H222.627V329L339.627 175H440.127L304.127 347L445.127 526H340.627ZM525.76 530C510.76 530 498.426 525.667 488.76 517C479.426 508 474.76 497 474.76 484C474.76 470.667 479.426 459.5 488.76 450.5C498.426 441.5 510.76 437 525.76 437C540.426 437 552.426 441.5 561.76 450.5C571.426 459.5 576.26 470.667 576.26 484C576.26 497 571.426 508 561.76 517C552.426 525.667 540.426 530 525.76 530Z" fill="white"/>
</svg>
